# xmcd
#
# Track frame offsets:
#	150
#	19268
#	33196
#	50087
#	59296
#	80896
#	96108
#	108673
#	120570
#
# Disc length: 1763 seconds
#
# Revision: 0
# Processed by: cddbd v1.5PL3 Copyright (c) Steve Scherf et al.
# Submitted via: AudioConverter v4.2 Copyright (c) Dennis Rebentrost
#
DISCID=7706e109
DTITLE=Eve Selis - When Wishes Come True
DYEAR=2002
DGENRE=Country
TTITLE0=When Wishes Come True
TTITLE1=Christmas Time is Here
TTITLE2=Santa Claus Is Comin' to Town
TTITLE3=Rockin' Around The Christmas Tree
TTITLE4=Nothing But A Child
TTITLE5=Mary Did You Know?
TTITLE6=Little Drummer Boy
TTITLE7=Rudolph The Red-Nosed Reindeer
TTITLE8=Let It Snow
EXTD=
EXTT0=
EXTT1=
EXTT2=
EXTT3=
EXTT4=
EXTT5=
EXTT6=
EXTT7=
EXTT8=
PLAYORDER=
